<svg width="270" height="270" viewBox="0 0 270 270" fill="none" xmlns="http://www.w3.org/2000/svg">
<rect width="270" height="270" rx="32" fill="#F97316"/>
<path d="M168.659 179.477C168.091 177.636 167.307 175.989 166.307 174.534C165.33 173.057 164.148 171.795 162.761 170.75C161.398 169.705 159.83 168.92 158.057 168.398C156.284 167.852 154.352 167.58 152.261 167.58C148.511 167.58 145.17 168.523 142.239 170.409C139.307 172.295 137 175.068 135.318 178.727C133.659 182.364 132.83 186.795 132.83 192.023C132.83 197.295 133.659 201.761 135.318 205.42C136.977 209.08 139.284 211.864 142.239 213.773C145.193 215.659 148.625 216.602 152.534 216.602C156.08 216.602 159.148 215.92 161.739 214.557C164.352 213.193 166.364 211.261 167.773 208.761C169.182 206.239 169.886 203.284 169.886 199.898L172.75 200.341H153.795V190.455H182.125V198.841C182.125 204.818 180.852 209.989 178.307 214.352C175.761 218.716 172.261 222.08 167.807 224.443C163.352 226.784 158.239 227.955 152.466 227.955C146.034 227.955 140.386 226.511 135.523 223.625C130.682 220.716 126.898 216.591 124.17 211.25C121.466 205.886 120.114 199.523 120.114 192.159C120.114 186.523 120.909 181.489 122.5 177.057C124.114 172.625 126.364 168.864 129.25 165.773C132.136 162.659 135.523 160.295 139.409 158.682C143.295 157.045 147.523 156.227 152.091 156.227C155.955 156.227 159.557 156.795 162.898 157.932C166.239 159.045 169.205 160.636 171.795 162.705C174.409 164.773 176.557 167.227 178.239 170.068C179.92 172.909 181.023 176.045 181.545 179.477H168.659ZM194.355 227V157.182H220.537C225.901 157.182 230.401 158.182 234.037 160.182C237.696 162.182 240.457 164.932 242.321 168.432C244.207 171.909 245.151 175.864 245.151 180.295C245.151 184.773 244.207 188.75 242.321 192.227C240.435 195.705 237.651 198.443 233.969 200.443C230.287 202.42 225.753 203.409 220.366 203.409H203.014V193.011H218.662C221.798 193.011 224.366 192.466 226.366 191.375C228.366 190.284 229.844 188.784 230.798 186.875C231.776 184.966 232.264 182.773 232.264 180.295C232.264 177.818 231.776 175.636 230.798 173.75C229.844 171.864 228.355 170.398 226.332 169.352C224.332 168.284 221.753 167.75 218.594 167.75H207.003V227H194.355Z" fill="#111827"/>
</svg>
